<svg width="49" height="49" viewBox="0 0 49 49" fill="none" xmlns="http://www.w3.org/2000/svg">
<rect x="0.5" y="0.5" width="48" height="48" stroke="black"/>
<path d="M8.16667 36.75C7.5882 36.75 7.10365 36.554 6.71301 36.162C6.32237 35.77 6.12637 35.2854 6.12501 34.7083C6.12365 34.1312 6.31965 33.6467 6.71301 33.2547C7.10637 32.8627 7.59092 32.6667 8.16667 32.6667H40.8333C41.4118 32.6667 41.8971 32.8627 42.2891 33.2547C42.6811 33.6467 42.8764 34.1312 42.875 34.7083C42.8736 35.2854 42.6776 35.7707 42.287 36.164C41.8964 36.5574 41.4118 36.7527 40.8333 36.75H8.16667ZM8.16667 26.5417C7.5882 26.5417 7.10365 26.3457 6.71301 25.9537C6.32237 25.5617 6.12637 25.0771 6.12501 24.5C6.12365 23.9229 6.31965 23.4383 6.71301 23.0463C7.10637 22.6543 7.59092 22.4583 8.16667 22.4583H40.8333C41.4118 22.4583 41.8971 22.6543 42.2891 23.0463C42.6811 23.4383 42.8764 23.9229 42.875 24.5C42.8736 25.0771 42.6776 25.5623 42.287 25.9557C41.8964 26.3491 41.4118 26.5444 40.8333 26.5417H8.16667ZM8.16667 16.3333C7.5882 16.3333 7.10365 16.1373 6.71301 15.7453C6.32237 15.3533 6.12637 14.8688 6.12501 14.2917C6.12365 13.7146 6.31965 13.23 6.71301 12.838C7.10637 12.446 7.59092 12.25 8.16667 12.25H40.8333C41.4118 12.25 41.8971 12.446 42.2891 12.838C42.6811 13.23 42.8764 13.7146 42.875 14.2917C42.8736 14.8688 42.6776 15.354 42.287 15.7474C41.8964 16.1407 41.4118 16.3361 40.8333 16.3333H8.16667Z" fill="black"/>
</svg>
