<svg width="1465" height="1038" viewBox="0 0 1465 1038" fill="none" xmlns="http://www.w3.org/2000/svg">
<path d="M891.961 15.4984C1007.31 50.5198 1082.73 135.219 1168.53 208.226C1277.91 301.304 1481.65 372.562 1463.43 501.77C1444.51 635.965 1211.26 659.834 1091.9 751.594C1008.05 816.057 966.436 911.319 868.02 959.512C762.156 1011.35 638.176 1053.09 517.762 1032.74C398.719 1012.62 317.811 925.654 234.247 852.389C156.995 784.659 89.8373 711.686 51.527 623.97C10.8919 530.93 -13.9114 432.495 8.39495 335.269C32.2592 231.253 77.0384 120.2 181.123 59.1012C283.527 -1.0105 421.494 27.048 546.534 19.378C663.748 12.1881 781.567 -18.019 891.961 15.4984Z" fill="#FFA07D"/>
</svg>
