<svg width="2374" height="2354" viewBox="0 0 2374 2354" fill="none" xmlns="http://www.w3.org/2000/svg">
<circle cx="185" cy="185" r="185" fill="#D1F8EF"/>
<circle cx="185" cy="681" r="185" fill="#D1F8EF"/>
<circle cx="185" cy="1177" r="185" fill="#D1F8EF"/>
<circle cx="185" cy="1673" r="185" fill="#D1F8EF"/>
<circle cx="185" cy="2169" r="185" fill="#D1F8EF"/>
<circle cx="686" cy="185" r="185" fill="#D1F8EF"/>
<circle cx="686" cy="681" r="185" fill="#D1F8EF"/>
<circle cx="686" cy="1177" r="185" fill="#D1F8EF"/>
<circle cx="686" cy="1673" r="185" fill="#D1F8EF"/>
<circle cx="686" cy="2169" r="185" fill="#D1F8EF"/>
<circle cx="1187" cy="185" r="185" fill="#D1F8EF"/>
<circle cx="1187" cy="681" r="185" fill="#D1F8EF"/>
<circle cx="1187" cy="1177" r="185" fill="#D1F8EF"/>
<circle cx="1187" cy="1673" r="185" fill="#D1F8EF"/>
<circle cx="1187" cy="2169" r="185" fill="#D1F8EF"/>
<circle cx="1688" cy="185" r="185" fill="#D1F8EF"/>
<circle cx="1688" cy="681" r="185" fill="#D1F8EF"/>
<circle cx="1688" cy="1177" r="185" fill="#D1F8EF"/>
<circle cx="1688" cy="1673" r="185" fill="#D1F8EF"/>
<circle cx="1688" cy="2169" r="185" fill="#D1F8EF"/>
<circle cx="2189" cy="185" r="185" fill="#D1F8EF"/>
<circle cx="2189" cy="681" r="185" fill="#D1F8EF"/>
<circle cx="2189" cy="1177" r="185" fill="#D1F8EF"/>
<circle cx="2189" cy="1673" r="185" fill="#D1F8EF"/>
<circle cx="2189" cy="2169" r="185" fill="#D1F8EF"/>
</svg>
